<svg fill="#444444" id="Layer_1" data-name="Layer 1" xmlns="http://www.w3.org/2000/svg" viewBox="0 0 512 498.27">
    <path d="M834-385v21a18,18,0,0,0-.87,2.79c-5.55,40.37-26.17,70.48-61.57,90.56-1.25.71-2.47,1.48-3.68,2.21,28.77,57.34,7.51,117.45-31.69,148.6-38.43,30.55-109,39.1-158.18-10.35C530.36-82.41,462.73-89,425.52-115.82c-20-14.46-34.93-32.78-43.35-56-12-33-9.59-65.31,6-96.48a10.77,10.77,0,0,0-1.07-1c-.56-.34-1.16-.63-1.75-1q-46.39-25.2-59.8-76.27C324-352.25,323.17-358.18,322-364v-22c.66-3.39,1.39-6.77,2-10.17,8.55-49.91,51.18-90.57,101.31-95.79,11.63-1.2,23.49-.17,35.27-.17,8.82-59.21,59.31-97.65,108.91-100.79,25.33-1.6,49,3.84,70.57,17.4,31.05,19.56,49.08,48,55.23,83.92,2.37-.24,4.19-.39,6-.61,59.73-7.12,114.16,30.24,129,88.69C831.86-397.46,832.79-391.21,834-385ZM414.79-207.5c0,28.08,21.1,57.68,52.63,68.45a78.27,78.27,0,0,0,87.08-25.82c2.57-3.27,4.89-6.74,7.45-10,8.55-10.94,23.61-10.89,32.17.11,2.87,3.67,5.47,7.56,8.39,11.19,22.4,27.86,62.1,36.69,94.48,21.07,32.6-15.73,50.29-52,42.62-87-3-13.68-9.92-25.23-18.08-36.35-9.25-12.61-4.13-27.31,10.78-32.17,4-1.29,7.93-2.54,11.81-4,34.39-13,55.09-49.77,48.69-86.39-6.43-36.81-38.66-64.26-75.65-64.74-11.9-.15-23,3-34.14,6.53-14.06,4.45-26.45-4.64-26.85-19.4-.1-3.67.11-7.34-.09-11-1.86-33.28-18.06-57-48.51-70.2-28.6-12.39-62.2-5.45-84.18,16.33C506.3-514,498.52-493.3,500-469.43c1.05,17.49-13.58,28.76-30.51,21.87a80.3,80.3,0,0,0-21.76-5.2c-38.45-4-73.95,21.39-83.38,59.07a78.11,78.11,0,0,0,46.33,91.08c5.07,2.06,10.41,3.48,15.51,5.48a19.76,19.76,0,0,1,9.71,29.35c-2,3.24-4.47,6.22-6.67,9.36C419.63-244.79,414.68-229.7,414.79-207.5Z" transform="translate(-322 593.22)" />
    <path d="M577.88-251.95A80,80,0,0,1,498-332.27c.11-43.83,36.21-79.74,80.1-79.68,44.1.06,80,36.21,79.88,80.42A80,80,0,0,1,577.88-251.95Zm0-40A40,40,0,0,0,618-332a40.18,40.18,0,0,0-40.16-40A40.19,40.19,0,0,0,538-332.1,40,40,0,0,0,577.93-292Z" transform="translate(-322 593.22)" />
</svg>